<svg height="512" viewBox="0 0 128 128" width="512" xmlns="http://www.w3.org/2000/svg"><g id="Circle_Grid" data-name="Circle Grid"><circle cx="64" cy="64" fill="#69b0ee" r="64"/></g><g id="icon"><path d="m87.533 95.227 8.58 9.773h-63.721a9.084 9.084 0 0 1 -9.084-9.084v-72.916h64.225v77.747" fill="#eeefee"/><path d="m87.533 66.65h17.159a0 0 0 0 1 0 0v29.77a8.58 8.58 0 0 1 -8.58 8.58 8.58 8.58 0 0 1 -8.58-8.58v-29.77a0 0 0 0 1 .001 0z" fill="#dbd8dd"/><path d="m43.311 37.376h-1.349l-5.207-7.844v7.844h-1.247v-9.94h1.342l5.207 7.844v-7.844h1.254z" fill="#575b6d"/><path d="m52.946 37.376h-7.411v-9.94h7.18v1.18h-5.864v3.037h5.485v1.18h-5.485v3.367h6.1z" fill="#575b6d"/><path d="m66.655 27.436-2.755 9.94h-1.259l-2.387-8.638-2.393 8.638h-1.261l-2.746-9.939h1.383l1.987 8.1 2.237-8.1h1.58l2.237 8.1 1.987-8.1z" fill="#575b6d"/><path d="m71.652 37.545a4.554 4.554 0 0 1 -3.143-.942 3.291 3.291 0 0 1 -1.095-2.42h1.268a2.06 2.06 0 0 0 .925 1.644 3.588 3.588 0 0 0 1.99.532 3.134 3.134 0 0 0 1.78-.454 1.415 1.415 0 0 0 .675-1.234 1.257 1.257 0 0 0 -.7-1.193 10.041 10.041 0 0 0 -2.4-.736 5.55 5.55 0 0 1 -2.452-1.007 2.158 2.158 0 0 1 -.742-1.715 2.424 2.424 0 0 1 .966-1.98 3.988 3.988 0 0 1 2.566-.773 4.38 4.38 0 0 1 2.712.78 2.761 2.761 0 0 1 1.092 2.2h-1.279q-.2-1.8-2.468-1.8a2.987 2.987 0 0 0 -1.7.414 1.273 1.273 0 0 0 -.6 1.1 1.039 1.039 0 0 0 .485.936 6.149 6.149 0 0 0 1.81.6 17.079 17.079 0 0 1 2.105.576 3.37 3.37 0 0 1 1.336.885 2.275 2.275 0 0 1 .556 1.61 2.654 2.654 0 0 1 -1.02 2.129 4.028 4.028 0 0 1 -2.667.848z" fill="#575b6d"/><g fill="#dbd8dd"><path d="m29.087 42.602h22.792v1.833h-22.792z"/><path d="m58.962 42.602h22.792v1.833h-22.792z"/><path d="m29.087 50.13h22.792v1.833h-22.792z"/><path d="m29.087 57.657h22.792v1.833h-22.792z"/><path d="m29.087 65.185h22.792v1.833h-22.792z"/><path d="m58.962 65.185h22.792v1.833h-22.792z"/><path d="m29.087 72.712h22.792v1.833h-22.792z"/><path d="m58.962 72.712h22.792v1.833h-22.792z"/><path d="m29.087 80.239h22.792v1.833h-22.792z"/><path d="m58.962 80.239h22.792v1.833h-22.792z"/><path d="m29.087 87.767h22.792v1.833h-22.792z"/><path d="m58.962 87.767h22.792v1.833h-22.792z"/><path d="m29.087 95.294h22.792v1.833h-22.792z"/><path d="m58.962 95.294h22.792v1.833h-22.792z"/><path d="m29.087 74.065h22.792v15.333h-22.792z"/><path d="m58.962 50.13h22.792v9.361h-22.792z"/></g></g></svg>